<svg xmlns="http://www.w3.org/2000/svg" width="46.656" height="46.656">
    <defs>
        <linearGradient id="a" x1="0%" x2="0%" y1="100%" y2="0%">
            <stop offset="0%" stop-color="#107AC8"/>
            <stop offset="100%" stop-color="#BF38F7"/>
        </linearGradient>
    </defs>
    <path fill="none" d="M17.5 2C26.06 2 33 8.94 33 17.5 33 26.06 26.06 33 17.5 33 8.94 33 2 26.06 2 17.5 2 8.94 8.94 2 17.5 2z"/>
    <path fill-rule="evenodd" d="M25.054 15.586l-.821.821-7.962 7.962-.005.004a.666.666 0 0 1-.204.135c-.004.002-.007.006-.012.008-.023.009-.048.007-.071.014-.041.012-.081.029-.124.033l-5.131.435-.057.002a.667.667 0 0 1-.664-.723l.435-5.132c.003-.041.02-.079.031-.119.007-.022.004-.045.012-.068l.011-.016a.666.666 0 0 1 .112-.173c.009-.011.014-.025.024-.035l.003-.004 7.963-7.963.82-.82A3.212 3.212 0 0 1 21.7 9c.864 0 1.676.336 2.286.947l1.068 1.067a3.237 3.237 0 0 1 0 4.572zm-9.077 7.192l6.842-6.843-1.431-1.43-6.589 6.634a8.997 8.997 0 0 1 1.178 1.639zm-4.579.824l3.36-.284c-.904-1.59-2.222-2.569-3.076-3.068l-.284 3.352zm7.893-11.195l-.226-.226-6.841 6.841a10.35 10.35 0 0 1 1.634 1.172l6.588-6.632-1.155-1.155zm4.82-.45l-1.067-1.067a1.888 1.888 0 0 0-1.344-.557c-.507 0-.984.198-1.343.557l-.349.349 3.754 3.753.349-.349c.74-.74.74-1.945 0-2.686z"/>
    <path fill="url(#a)" d="M25.054 15.586l-.821.821-7.962 7.962-.005.004a.666.666 0 0 1-.204.135c-.004.002-.007.006-.012.008-.023.009-.048.007-.071.014-.041.012-.081.029-.124.033l-5.131.435-.057.002a.667.667 0 0 1-.664-.723l.435-5.132c.003-.041.02-.079.031-.119.007-.022.004-.045.012-.068l.011-.016a.666.666 0 0 1 .112-.173c.009-.011.014-.025.024-.035l.003-.004 7.963-7.963.82-.82A3.212 3.212 0 0 1 21.7 9c.864 0 1.676.336 2.286.947l1.068 1.067a3.237 3.237 0 0 1 0 4.572zm-9.077 7.192l6.842-6.843-1.431-1.43-6.589 6.634a8.997 8.997 0 0 1 1.178 1.639zm-4.579.824l3.36-.284c-.904-1.59-2.222-2.569-3.076-3.068l-.284 3.352zm7.893-11.195l-.226-.226-6.841 6.841a10.35 10.35 0 0 1 1.634 1.172l6.588-6.632-1.155-1.155zm4.82-.45l-1.067-1.067a1.888 1.888 0 0 0-1.344-.557c-.507 0-.984.198-1.343.557l-.349.349 3.754 3.753.349-.349c.74-.74.74-1.945 0-2.686z"/>
</svg>
